<?xml version="1.0" encoding="UTF-8"?>
<svg id="Layer_2" data-name="Layer 2" xmlns="http://www.w3.org/2000/svg" viewBox="0 0 78.59 58.94">
  <defs>
    <style>
      .cls-1, .cls-2, .cls-3, .cls-4 {
        stroke-miterlimit: 10;
      }

      .cls-1, .cls-2, .cls-4 {
        stroke: #fff;
        stroke-width: .5px;
      }

      .cls-1, .cls-3 {
        fill: #000;
      }

      .cls-2 {
        fill: #28572a;
      }

      .cls-3 {
        stroke: #000;
      }

      .cls-4 {
        fill: none;
      }
    </style>
  </defs>
  <g id="Layer_72" data-name="Layer 72">
    <rect class="cls-2" x=".25" y=".25" width="78.09" height="58.44"/>
    <rect class="cls-1" x="18.27" y="45.64" width="3.91" height="13.04"/>
    <rect class="cls-1" x="53.88" y="45.64" width="3.91" height="13.04"/>
    <circle class="cls-3" cx="46.78" cy="39.37" r="6.72"/>
    <circle class="cls-3" cx="62.95" cy="39.72" r="6.72"/>
    <circle class="cls-3" cx="47.62" cy="30.6" r="6.72"/>
    <circle class="cls-3" cx="55.45" cy="25.93" r="6.72"/>
    <circle class="cls-3" cx="62.95" cy="31.21" r="6.72"/>
    <circle class="cls-3" cx="54.34" cy="36.69" r="6.72"/>
    <polygon class="cls-1" points="20.56 11.21 11 48.59 30.12 48.59 20.56 11.21"/>
    <circle class="cls-3" cx="55.84" cy="44.64" r="6.72"/>
    <path class="cls-4" d="m41.7,34.45s-3.99,3.71-.66,9.08c0,0,2.83,4.12,7.89,2.55,0,0,.46,3.65,4.57,5.28,0,0,6.76,1.93,9.07-4.59,0,0,4.83.5,6.85-4.3,0,0,1.78-3.28-.85-7.02,0,0,2.93-3.5.39-7.94,0,0-1.67-3.57-6.67-3.33,0,0-1.11-5.04-6.61-5.33,0,0-4.54-.52-6.94,4.76,0,0-4.33-.91-7.09,3.15,0,0-2.48,3.73.05,7.68Z"/>
    <path class="cls-4" d="m42.08,34.67c.57.65,1.11,1.16,1.54,1.54.84.74,1.3,1,1.86,1.1.19.03.34.04.45.04.08-.02.37-.1.56-.37.2-.28.18-.62.11-.84-.12-.39-.54-.6-.93-.75-1.24-.49-2.77-.65-3.58-.72Z"/>
    <path class="cls-4" d="m48.82,23.89c-.13.52-.25,1.22-.22,2.06.02.52.09.98.18,1.36.03.11.2.74.79,1.02.12.06.51.24.88.07.3-.13.43-.42.51-.59,0,0,.23-.5.12-1.16-.22-1.38-2.17-2.7-2.26-2.76Z"/>
    <path class="cls-4" d="m62.13,24.49c-.5.27-1.12.67-1.69,1.22-.33.32-.51.57-.64.83-.15.3-.23.56-.27.76-.02.11-.07.59.22.93.05.06.14.16.3.22.21.08.41.03.5,0,.2-.06.33-.16.38-.2.49-.4.72-1.26.72-1.26.24-.91.39-1.78.48-2.48Z"/>
    <path class="cls-4" d="m49.12,45.64c.7-.54,1.26-1.02,1.66-1.38.35-.31.6-.55.85-.92.27-.39.53-.77.53-1.29,0-.48-.25-.85-.39-1.03-.14-.05-.4-.13-.7-.06,0,0-.32.08-.62.39-.41.44-.94,2.06-1.32,4.29Z"/>
    <path class="cls-4" d="m62.44,46.53c-1.74-.68-2.9-1.54-3.21-2.1-.29-.52-.29-.99-.29-.99,0-.22.04-.4.08-.51.03-.07.14-.27.38-.38.18-.08.34-.08.42-.07.11,0,.3.04.56.21.38.25.57.61.64.73.29.54.82,1.65,1.44,3.13Z"/>
    <path class="cls-4" d="m68.28,35.41c-.81-.45-1.53-.76-2.08-.96-.19-.07-1.06-.39-2.08-.41-.22,0-.5,0-.77.17-.36.23-.49.61-.54.78-.02.12-.04.45.16.73.17.23.39.32.62.4.16.06.43.13.78.12.35-.01.73-.04,1.13-.09,1.1-.14,2.03-.43,2.78-.74Z"/>
  </g>
</svg>