<?xml version="1.0" encoding="UTF-8"?>
<svg id="Layer_2" data-name="Layer 2" xmlns="http://www.w3.org/2000/svg" viewBox="0 0 563.18 459.39">
  <defs>
    <style>
      .cls-1 {
        fill: #f47822;
      }

      .cls-2 {
        fill: #fdd8a7;
      }

      .cls-3 {
        fill: #ffd108;
      }

      .cls-4 {
        fill: #9a1c7a;
      }

      .cls-5 {
        fill: #cabc96;
      }

      .cls-6 {
        fill: #c6b893;
      }

      .cls-7 {
        fill: #231f20;
      }

      .cls-8 {
        fill: #415d2b;
      }

      .cls-9 {
        fill: #a1ddf2;
      }

      .cls-10 {
        fill: #726b55;
      }

      .cls-11 {
        fill: #5c5644;
      }

      .cls-12 {
        fill: #3b9fbe;
      }

      .cls-13 {
        fill: #567439;
      }

      .cls-14 {
        fill: #4ac7ee;
      }

      .cls-15 {
        fill: #8ac640;
      }

      .cls-15, .cls-16, .cls-17, .cls-18, .cls-19, .cls-20, .cls-21 {
        stroke: #fff;
        stroke-miterlimit: 10;
        stroke-width: .5px;
      }

      .cls-16 {
        fill: #8c8e90;
      }

      .cls-17 {
        fill: #ffe505;
      }

      .cls-18 {
        fill: #005ea2;
      }

      .cls-19 {
        fill: #552670;
      }

      .cls-20 {
        fill: #cf5027;
      }

      .cls-21 {
        fill: #f5802e;
      }

      .cls-22 {
        opacity: .16;
      }
    </style>
  </defs>
  <g id="Layer_72" data-name="Layer 72">
    <g class="cls-22">
      <polygon class="cls-5" points="0 382.68 563.18 382.68 431.79 157.64 381.94 228.39 226.11 0 0 382.68"/>
      <polygon class="cls-10" points="431.79 157.64 381.94 228.39 262.44 53.24 227.91 87.77 194.18 54.04 0 382.68 563.18 382.68 431.79 157.64"/>
      <polygon class="cls-6" points="381.94 228.39 485.48 382.68 563.18 382.68 431.79 157.64 381.94 228.39"/>
      <polygon class="cls-11" points="455.57 198.38 431.27 222.68 404.69 196.1 381.94 228.39 485.48 382.68 563.18 382.68 455.57 198.38"/>
    </g>
    <g>
      <path class="cls-12" d="m327.54,350.08c1.08-6.76.18-8.77-.89-9.31-3.36-1.68-12.05,9.19-14.49,12.25-4.34,5.46-7.99,11.44-11.14,17.65-8.48,16.72-14.42,35.19-18.24,53.52-1.86,8.95-3.27,20.25,4.16,27.18,7.58,7.06,19.83,6.21,26.86-1.06,4.48-4.63,6.76-11.04,7.46-17.44,1.67-15.4-1.95-19.94.92-33.05,1.96-8.96,4.75-9.23,8.38-19.15,2.83-7.73,5.47-19.43,3.52-35.73"/>
      <path class="cls-12" d="m452.2,350.49c-1.26-6.73-.42-8.76.65-9.33,3.32-1.77,12.29,8.86,14.81,11.86,4.49,5.34,8.29,11.22,11.61,17.34,8.92,16.49,15.36,34.79,19.66,53.01,2.1,8.89,3.81,20.16-3.44,27.28-7.39,7.26-19.66,6.74-26.88-.34-4.6-4.51-7.06-10.85-7.92-17.24-2.08-15.35,1.41-19.98-1.8-33.02-2.2-8.9-5-9.1-8.89-18.92-3.04-7.66-5.99-19.28-4.47-35.62"/>
      <path class="cls-12" d="m320.73,156.15s-29.32-57.23-46.77-54.98c0,0-35.93,6.34-51.31,32.67,0,0,8.4,14.81,29.35,6.03,2.05,1.7,4.1,3.45,6.16,5.25,10.55,9.25,19.79,18.72,27.89,28.05,3.18-.71,6.61-1.67,10.2-2.97,10.63-3.86,18.75-9.33,24.48-14.05Z"/>
      <path class="cls-12" d="m435.26,154.23s19.51-61.27,37.09-61.93c0,0,36.48.35,55.99,23.79,0,0-5.85,15.99-27.96,10.78-1.74,2.01-3.48,4.08-5.21,6.2-8.88,10.86-16.44,21.72-22.9,32.25-3.26-.17-6.79-.56-10.55-1.25-11.12-2.06-20.03-6.12-26.46-9.83Z"/>
      <path class="cls-14" d="m505.78,247.43c.42-13.25,1.36-42.66-17.99-69.81-13.99-19.63-31.65-28.36-43.27-34.09-47.49-23.45-93.57-12.61-106.04-9.49-13.44,3.37-31.81,8.19-50.41,23.26-7.22,5.86-27.58,22.83-35.91,52.64-9.9,35.44,3.87,65.22,9.84,78.22,9.73,21.19,22.74,34.34,29.49,41.03,16.39,16.27,33.18,25.56,44.35,30.69,0,0,7.19-14.46,33.87-23.28,5.22,3.24,40.56,24.43,76.86,10.12,20.22-7.97,31.38-23.26,37.73-31.96,19.82-27.16,21.11-55.77,21.48-67.34Z"/>
      <path class="cls-8" d="m250.44,253.89s145.39-39.45,255.34-6.47c0,0,6.54-50.79-31.11-85.98,5.36-5.22,10.71-10.45,16.07-15.67-13.8-12.99-27.59-25.98-41.39-38.98-5.6,9.53-11.2,19.07-16.8,28.6-10.71-2.74-23.26-5.01-37.36-5.87-34.97-2.14-63.75,5.38-82.53,12.2l-12.54-28.5c-14.86,12.95-29.72,25.91-44.58,38.86,5.99,5.78,11.97,11.57,17.96,17.35-4.79,5.08-9.95,11.67-14.34,19.99-14.09,26.71-10.8,53.33-8.73,64.46Z"/>
      <path class="cls-13" d="m275.99,244.34s10.59,58.34,58.77,93.91l9.42-10.35s-55.2-51.23-56.16-87.43l-9.72-12.34-2.32,16.22Z"/>
      <path class="cls-13" d="m487.02,237.82s-10.59,58.34-58.77,93.91l-9.42-10.35s55.2-51.23,56.16-87.43l9.72-12.34,2.32,16.22Z"/>
      <path class="cls-9" d="m364.13,439.72c.04,1.79-.13,4.85-1.72,8.12-2.38,4.89-6.44,7.13-8.73,8.4-1.63.9-7.14,3.85-14.56,3.01-2.37-.27-9.5-1.07-14.45-7.12-4.75-5.8-4.35-12.57-4.19-15.25.43-7.37,4.03-12.47,5.53-14.38,0,0,7.38-7.38,14.02-6.4,2.36,2.81,4.92,5.7,7.72,8.61,5.59,5.83,11.14,10.79,16.39,15Z"/>
      <path class="cls-4" d="m361.94,437.42c-.22,1.39-.6,2.99-1.27,4.69-1.98,5.02-5.38,8.14-7.43,9.72-7.74,4.59-17.37,3.18-22.76-2.82-5.95-6.62-4.24-16.03-1.77-20.86,1.18-2.31,2.63-3.78,3.05-4.18,3.1-2.98,7.27-4.3,11.86-4.72,2.03,3.07,4.83,6.75,8.65,10.46,3.44,3.35,6.81,5.87,9.68,7.73Z"/>
      <path class="cls-9" d="m453.47,450.84c2.58-2.55,3.68-5.19,4.34-6.8,2.83-6.95,1.79-13.63,1.03-16.87,0,0-4.5-10.63-14.7-8.55-1.96,2.09-4.95,4.96-9.04,7.71-9.65,6.49-14.77,6.23-16.03,10.29-1.72,5.53,5.88,13.17,12.09,16.48,2.01,1.07,7.77,4.15,14.48,2.33,3.98-1.08,6.67-3.44,7.83-4.58Z"/>
      <path class="cls-4" d="m450.04,448.53s8.91-6.4,6.02-19.13c0,0-2.37-8.26-14.1-8.99,0,0-11.14,9.99-17.37,12.87-.14,1.4-.14,3.31.47,5.42,1.7,5.92,6.8,8.77,8.07,9.44,1.24.82,5.15,3.17,10.38,2.63,3-.31,5.25-1.45,6.53-2.23Z"/>
      <path class="cls-9" d="m430.09,435.19s-19.72,12.3-32.1,13.28c-4.56.7-10.15,1.05-16.45.37-14.97-1.62-26.07-8.26-32.16-12.67-4.68-3.57-10.21-8.53-15.59-15.25-9.19-11.47-13.98-23.08-16.51-30.99,0,0-12.38-43.29,27.98-65.92,22.32-12.52,47.83-15.43,71.8-6.74,5.01,1.82,9.88,4.11,14.47,6.92,12.72,7.8,23.41,19.92,28.41,34.7,10.04,29.7-5.72,61-29.83,76.31Z"/>
      <path class="cls-2" d="m391.99,387.88c5.77-1.04,9.84-7.64,12.3-12.51,7.2-14.3,5.34-34.39-10.38-42.02-2.62-1.27-5.6-1.97-8.45-1.42-2.25.43-4.3,1.62-6.11,3.03-9.34,7.26-12.06,19.86-9.12,30.96,2.06,7.79,7.58,17.5,15.2,20.97,1.88.86,3.98,1.33,6.04,1.09.18-.02.35-.05.53-.08Z"/>
      <path class="cls-7" d="m390,375.7c1.96-.51,3.4-.88,3.93-2.11.46-1.06.06-2.32-.25-3.31-.28-.88-.62-1.46-1.01-2.11,0,0-1.84-3.07-4.6-4.36-.24-.11-.52-.2-.82-.13-.26.06-.48.24-.68.42-2.69,2.44-4.49,6.2-3.63,9.73.09.38.22.77.48,1.06.29.34.64.49.8.56,2.53,1.09,5.78.25,5.78.25Z"/>
      <path class="cls-7" d="m406.78,385.09s2.83,6.31,6.79,0l-.67-1.67s-2.97,3.63-5.13,0l-.99,1.67Z"/>
      <path class="cls-7" d="m365.7,385.09s2.83,6.31,6.79,0l-.67-1.67s-2.97,3.63-5.13,0l-.99,1.67Z"/>
      <path class="cls-1" d="m374.57,353.87s14.54-11.67,28.97,0c0,0-16.79-35.13-28.97,0Z"/>
      <circle class="cls-3" cx="281.36" cy="240.15" r="4.19"/>
      <circle class="cls-3" cx="481.8" cy="235.96" r="4.19"/>
    </g>
    <g>
      <rect class="cls-16" x="169.59" y="390.04" width="19.67" height="68.27"/>
      <circle class="cls-19" cx="178.81" cy="314.65" r="29.96"/>
      <circle class="cls-20" cx="212.93" cy="339.25" r="29.96"/>
      <circle class="cls-21" cx="212.28" cy="377.26" r="29.96"/>
      <circle class="cls-17" cx="179.43" cy="400.03" r="29.96"/>
      <circle class="cls-15" cx="139.36" cy="377.26" r="29.96"/>
      <circle class="cls-18" cx="143.21" cy="333.61" r="29.96"/>
    </g>
  </g>
</svg>